<svg width="325" height="188" viewBox="0 0 325 188" fill="none" xmlns="http://www.w3.org/2000/svg">
<g clip-path="url(#clip0_150_809)">
<rect width="325" height="188" fill="#F0F0F3"/>
<g filter="url(#filter0_dd_150_809)">
<rect x="-32.5" y="112.8" width="53.625" height="82.72" rx="5" fill="#F0F0F3"/>
</g>
<g filter="url(#filter1_dd_150_809)">
<rect x="289" y="-13" width="29" height="29" rx="14.5" fill="#F0F0F3"/>
</g>
<g filter="url(#filter2_ii_150_809)">
<rect x="39" y="186.403" width="22.8067" height="22.8067" rx="11.4034" transform="rotate(-30 39 186.403)" fill="#EEEEEE"/>
</g>
<g filter="url(#filter3_ii_150_809)">
<rect x="74" y="-1.59664" width="34.9049" height="34.9049" rx="16" transform="rotate(-30 74 -1.59664)" fill="#EEEEEE"/>
</g>
<g filter="url(#filter4_dd_150_809)">
<rect x="292" y="112" width="24" height="24" rx="5" fill="#F0F0F3"/>
</g>
<g filter="url(#filter5_ii_150_809)">
<rect x="293" y="113" width="22" height="22" rx="5" fill="#EEEEEE"/>
</g>
<path d="M304 129C306.761 129 309 126.761 309 124C309 121.239 306.761 119 304 119C301.239 119 299 121.239 299 124C299 126.761 301.239 129 304 129Z" stroke="#808B9F" stroke-linecap="round" stroke-linejoin="round"/>
<path d="M302 125C302 125 302.75 126 304 126C305.25 126 306 125 306 125" stroke="#808B9F" stroke-linecap="round" stroke-linejoin="round"/>
<path d="M302.5 122.5H302.505" stroke="#808B9F" stroke-linecap="round" stroke-linejoin="round"/>
<path d="M305.5 122.5H305.505" stroke="#808B9F" stroke-linecap="round" stroke-linejoin="round"/>
<g filter="url(#filter6_dd_150_809)">
<rect x="99" y="44" width="48" height="24" rx="12" fill="#F0F0F3"/>
</g>
<g filter="url(#filter7_ii_150_809)">
<rect x="100" y="45" width="46" height="22" rx="11" fill="#EEEEEE"/>
</g>
<g filter="url(#filter8_dd_150_809)">
<rect x="105" y="50" width="12" height="12" rx="6" fill="#F0F0F3"/>
</g>
<g filter="url(#filter9_dd_150_809)">
<rect x="50" y="105" width="24" height="24" rx="5" fill="#F0F0F3"/>
</g>
<rect x="51" y="106" width="22" height="22" rx="5" fill="#EEEEEE"/>
<path d="M62.4871 111C69.5407 112.826 64.4612 115.231 62.4871 116.5C60.5129 117.769 53.4617 120.026 62.4871 122M62.4871 111V122M62.4871 111H61.0771M62.4871 122H63.6155" stroke="#728AB7"/>
<g filter="url(#filter10_dd_150_809)">
<rect x="103" y="116" width="120" height="8" rx="4" fill="#F0F0F3"/>
</g>
<g filter="url(#filter11_ii_150_809)">
<rect x="104" y="117" width="118" height="6" rx="3" fill="#EEEEEE"/>
</g>
<g filter="url(#filter12_dd_150_809)">
<path d="M15 21C15 18.2386 17.2386 16 20 16H59C61.7614 16 64 18.2386 64 21V35C64 37.7614 61.7614 40 59 40H20C17.2386 40 15 37.7614 15 35V21Z" fill="#F0F0F3"/>
<path d="M27.5 31L24.5 28L27.5 25" stroke="#83DBD6" stroke-width="2" stroke-linecap="round" stroke-linejoin="round"/>
<g filter="url(#filter13_dd_150_809)">
<rect x="38" y="19" width="1" height="16" rx="0.5" fill="#F0F0F3"/>
</g>
<g filter="url(#filter14_dd_150_809)">
<rect x="40" y="19" width="1" height="16" rx="0.5" fill="#F0F0F3"/>
</g>
<path d="M50.5 31L53.5 28L50.5 25" stroke="#83DBD6" stroke-width="2" stroke-linecap="round" stroke-linejoin="round"/>
</g>
<g filter="url(#filter15_dd_150_809)">
<path d="M171 159C171 156.239 173.239 154 176 154H262C264.761 154 267 156.239 267 159V173C267 175.761 264.761 178 262 178H176C173.239 178 171 175.761 171 173V159Z" fill="#F0F0F3"/>
<g filter="url(#filter16_dd_150_809)">
<path d="M184.714 160.189C184.856 160.067 185.036 160 185.223 160V160C185.652 160 186 160.348 186 160.777L186 165.5L186 171.223C186 171.652 185.652 172 185.223 172V172C185.036 172 184.856 171.933 184.714 171.811L179.748 167.512C178.826 166.715 178.826 165.285 179.748 164.488L184.714 160.189Z" fill="#F0F0F3"/>
</g>
<path d="M206.77 169C206.703 169 206.647 168.977 206.6 168.93C206.553 168.883 206.53 168.827 206.53 168.76V163.58L205.01 164.75C204.97 164.783 204.923 164.8 204.87 164.8C204.79 164.8 204.723 164.763 204.67 164.69L204.25 164.15C204.217 164.097 204.2 164.047 204.2 164C204.2 163.92 204.237 163.853 204.31 163.8L206.55 162.07C206.61 162.023 206.693 162 206.8 162H207.68C207.753 162 207.81 162.023 207.85 162.07C207.897 162.11 207.92 162.167 207.92 162.24V168.76C207.92 168.827 207.897 168.883 207.85 168.93C207.81 168.977 207.753 169 207.68 169H206.77Z" fill="#745FF2"/>
<rect x="230" y="171" width="2.5" height="2.5" rx="1.25" fill="#745FF2"/>
<path d="M228.69 169C228.623 169 228.567 168.977 228.52 168.93C228.473 168.883 228.45 168.827 228.45 168.76V168.25C228.45 168.07 228.533 167.913 228.7 167.78L230.28 166.21C230.967 165.67 231.443 165.25 231.71 164.95C231.983 164.643 232.12 164.343 232.12 164.05C232.12 163.737 232.033 163.49 231.86 163.31C231.693 163.13 231.44 163.04 231.1 163.04C230.767 163.04 230.503 163.14 230.31 163.34C230.117 163.533 229.997 163.787 229.95 164.1C229.93 164.18 229.893 164.24 229.84 164.28C229.787 164.313 229.727 164.33 229.66 164.33H228.77C228.71 164.33 228.66 164.31 228.62 164.27C228.58 164.23 228.56 164.183 228.56 164.13C228.573 163.737 228.68 163.37 228.88 163.03C229.08 162.683 229.37 162.407 229.75 162.2C230.13 161.987 230.577 161.88 231.09 161.88C231.623 161.88 232.073 161.973 232.44 162.16C232.813 162.34 233.093 162.59 233.28 162.91C233.467 163.23 233.56 163.593 233.56 164C233.56 164.447 233.433 164.85 233.18 165.21C232.933 165.57 232.553 165.957 232.04 166.37L230.62 167.81H233.47C233.543 167.81 233.6 167.833 233.64 167.88C233.687 167.92 233.71 167.977 233.71 168.05V168.76C233.71 168.827 233.687 168.883 233.64 168.93C233.6 168.977 233.543 169 233.47 169H228.69Z" fill="#745FF2"/>
<g filter="url(#filter17_ii_150_809)">
<path d="M254.286 172.811C254.144 172.933 253.964 173 253.777 173V173C253.348 173 253 172.652 253 172.223L253 167.5L253 161.777C253 161.348 253.348 161 253.777 161V161C253.964 161 254.144 161.067 254.286 161.189L259.252 165.488C260.174 166.285 260.174 167.715 259.252 168.512L254.286 172.811Z" fill="#EEEEEE"/>
</g>
</g>
<g filter="url(#filter18_dd_150_809)">
<rect x="211" y="31" width="96" height="24" rx="5" fill="#F0F0F3"/>
<g filter="url(#filter19_dd_150_809)">
<path d="M287.189 41.2856C287.067 41.1444 287 40.9639 287 40.7771C287 40.3479 287.348 40 287.777 40L292.5 40L298.223 40C298.652 40 299 40.3479 299 40.7771C299 40.9639 298.933 41.1444 298.811 41.2856L294.512 46.2524C293.715 47.1741 292.285 47.1741 291.488 46.2524L287.189 41.2856Z" fill="#F0F0F3"/>
</g>
<path d="M222.21 46.1C221.617 46.1 221.107 46.01 220.68 45.83C220.253 45.65 219.93 45.4133 219.71 45.12C219.49 44.8267 219.373 44.51 219.36 44.17C219.36 44.11 219.38 44.06 219.42 44.02C219.46 43.98 219.51 43.96 219.57 43.96H220.46C220.54 43.96 220.6 43.9767 220.64 44.01C220.687 44.0367 220.73 44.0833 220.77 44.15C220.837 44.3767 220.99 44.5667 221.23 44.72C221.47 44.8733 221.797 44.95 222.21 44.95C222.683 44.95 223.04 44.8733 223.28 44.72C223.52 44.56 223.64 44.34 223.64 44.06C223.64 43.8733 223.577 43.72 223.45 43.6C223.33 43.48 223.147 43.3767 222.9 43.29C222.66 43.2033 222.3 43.0967 221.82 42.97C221.033 42.7833 220.457 42.5367 220.09 42.23C219.73 41.9167 219.55 41.4733 219.55 40.9C219.55 40.5133 219.653 40.17 219.86 39.87C220.073 39.57 220.377 39.3333 220.77 39.16C221.17 38.9867 221.633 38.9 222.16 38.9C222.707 38.9 223.18 38.9967 223.58 39.19C223.98 39.3833 224.283 39.6267 224.49 39.92C224.703 40.2067 224.817 40.4933 224.83 40.78C224.83 40.84 224.81 40.89 224.77 40.93C224.73 40.97 224.68 40.99 224.62 40.99H223.69C223.55 40.99 223.453 40.9267 223.4 40.8C223.36 40.5867 223.227 40.41 223 40.27C222.773 40.1233 222.493 40.05 222.16 40.05C221.787 40.05 221.493 40.12 221.28 40.26C221.067 40.4 220.96 40.6033 220.96 40.87C220.96 41.0567 221.013 41.21 221.12 41.33C221.227 41.45 221.393 41.5567 221.62 41.65C221.853 41.7433 222.187 41.8467 222.62 41.96C223.207 42.0933 223.673 42.2433 224.02 42.41C224.373 42.5767 224.633 42.7867 224.8 43.04C224.967 43.2933 225.05 43.6167 225.05 44.01C225.05 44.4367 224.93 44.81 224.69 45.13C224.457 45.4433 224.123 45.6833 223.69 45.85C223.263 46.0167 222.77 46.1 222.21 46.1ZM228.106 46.1C227.493 46.1 227.009 45.9 226.656 45.5C226.303 45.0933 226.126 44.5433 226.126 43.85V41.04C226.126 40.9733 226.149 40.9167 226.196 40.87C226.243 40.8233 226.299 40.8 226.366 40.8H227.246C227.319 40.8 227.376 40.8233 227.416 40.87C227.463 40.91 227.486 40.9667 227.486 41.04V43.79C227.486 44.6167 227.849 45.03 228.576 45.03C228.923 45.03 229.196 44.92 229.396 44.7C229.603 44.48 229.706 44.1767 229.706 43.79V41.04C229.706 40.9733 229.729 40.9167 229.776 40.87C229.823 40.8233 229.879 40.8 229.946 40.8H230.826C230.899 40.8 230.956 40.8233 230.996 40.87C231.043 40.91 231.066 40.9667 231.066 41.04V45.76C231.066 45.8267 231.043 45.8833 230.996 45.93C230.956 45.9767 230.899 46 230.826 46H230.016C229.949 46 229.893 45.9767 229.846 45.93C229.799 45.8833 229.776 45.8267 229.776 45.76V45.35C229.403 45.85 228.846 46.1 228.106 46.1ZM232.727 46C232.66 46 232.604 45.9767 232.557 45.93C232.51 45.8833 232.487 45.8267 232.487 45.76V41.04C232.487 40.9733 232.51 40.9167 232.557 40.87C232.604 40.8233 232.66 40.8 232.727 40.8H233.547C233.614 40.8 233.67 40.8233 233.717 40.87C233.764 40.9167 233.787 40.9733 233.787 41.04V41.45C234.18 40.95 234.737 40.7 235.457 40.7C236.07 40.7 236.557 40.9033 236.917 41.31C237.277 41.71 237.457 42.2567 237.457 42.95V45.76C237.457 45.8267 237.434 45.8833 237.387 45.93C237.347 45.9767 237.29 46 237.217 46H236.337C236.27 46 236.214 45.9767 236.167 45.93C236.12 45.8833 236.097 45.8267 236.097 45.76V43.01C236.097 42.6167 236 42.3133 235.807 42.1C235.62 41.88 235.347 41.77 234.987 41.77C234.634 41.77 234.354 41.88 234.147 42.1C233.947 42.32 233.847 42.6233 233.847 43.01V45.76C233.847 45.8267 233.824 45.8833 233.777 45.93C233.737 45.9767 233.68 46 233.607 46H232.727ZM240.757 46.1C240.084 46.1 239.567 45.8833 239.207 45.45C238.847 45.0167 238.654 44.44 238.627 43.72L238.617 43.39L238.627 43.07C238.647 42.37 238.837 41.8 239.197 41.36C239.564 40.92 240.084 40.7 240.757 40.7C241.404 40.7 241.917 40.92 242.297 41.36V39.14C242.297 39.0667 242.321 39.01 242.367 38.97C242.414 38.9233 242.471 38.9 242.537 38.9H243.387C243.461 38.9 243.517 38.9233 243.557 38.97C243.604 39.01 243.627 39.0667 243.627 39.14V45.76C243.627 45.8267 243.604 45.8833 243.557 45.93C243.517 45.9767 243.461 46 243.387 46H242.597C242.531 46 242.474 45.9767 242.427 45.93C242.381 45.8833 242.357 45.8267 242.357 45.76V45.39C241.977 45.8633 241.444 46.1 240.757 46.1ZM241.127 45.03C241.514 45.03 241.801 44.9067 241.987 44.66C242.174 44.4133 242.277 44.11 242.297 43.75C242.304 43.67 242.307 43.54 242.307 43.36C242.307 43.1867 242.304 43.06 242.297 42.98C242.284 42.6467 242.177 42.3633 241.977 42.13C241.784 41.89 241.501 41.77 241.127 41.77C240.407 41.77 240.024 42.2133 239.977 43.1L239.967 43.4L239.977 43.7C240.024 44.5867 240.407 45.03 241.127 45.03ZM246.57 46.1C246.23 46.1 245.917 46.0333 245.63 45.9C245.35 45.76 245.127 45.5733 244.96 45.34C244.8 45.1067 244.72 44.85 244.72 44.57C244.72 44.1167 244.903 43.75 245.27 43.47C245.637 43.19 246.14 43 246.78 42.9L248.15 42.7V42.49C248.15 42.1967 248.077 41.9767 247.93 41.83C247.783 41.6833 247.547 41.61 247.22 41.61C247 41.61 246.82 41.6533 246.68 41.74C246.547 41.82 246.44 41.9 246.36 41.98C246.28 42.0667 246.227 42.1233 246.2 42.15C246.173 42.23 246.123 42.27 246.05 42.27H245.28C245.22 42.27 245.167 42.25 245.12 42.21C245.08 42.17 245.06 42.1167 245.06 42.05C245.067 41.8833 245.147 41.6933 245.3 41.48C245.46 41.2667 245.703 41.0833 246.03 40.93C246.357 40.7767 246.757 40.7 247.23 40.7C248.017 40.7 248.59 40.8767 248.95 41.23C249.31 41.5833 249.49 42.0467 249.49 42.62V45.76C249.49 45.8267 249.467 45.8833 249.42 45.93C249.38 45.9767 249.323 46 249.25 46H248.44C248.373 46 248.317 45.9767 248.27 45.93C248.223 45.8833 248.2 45.8267 248.2 45.76V45.37C248.053 45.5833 247.843 45.76 247.57 45.9C247.303 46.0333 246.97 46.1 246.57 46.1ZM246.91 45.15C247.277 45.15 247.577 45.03 247.81 44.79C248.043 44.55 248.16 44.2 248.16 43.74V43.53L247.16 43.69C246.773 43.75 246.48 43.8467 246.28 43.98C246.087 44.1133 245.99 44.2767 245.99 44.47C245.99 44.6833 246.08 44.85 246.26 44.97C246.44 45.09 246.657 45.15 246.91 45.15ZM251.676 47.9C251.623 47.9 251.576 47.88 251.536 47.84C251.496 47.8 251.476 47.7533 251.476 47.7C251.476 47.64 251.49 47.5867 251.516 47.54L252.296 45.69L250.376 41.16C250.35 41.1 250.336 41.0533 250.336 41.02C250.343 40.96 250.366 40.91 250.406 40.87C250.446 40.8233 250.496 40.8 250.556 40.8H251.366C251.493 40.8 251.583 40.8633 251.636 40.99L252.966 44.26L254.336 40.99C254.39 40.8633 254.48 40.8 254.606 40.8H255.406C255.46 40.8 255.506 40.82 255.546 40.86C255.593 40.9 255.616 40.9467 255.616 41C255.616 41.0467 255.603 41.1 255.576 41.16L252.746 47.71C252.686 47.8367 252.593 47.9 252.466 47.9H251.676Z" fill="#C590EF"/>
</g>
</g>
<defs>
<filter id="filter0_dd_150_809" x="-36.5" y="108.8" width="62.125" height="91.22" filterUnits="userSpaceOnUse" color-interpolation-filters="sRGB">
<feFlood flood-opacity="0" result="BackgroundImageFix"/>
<feColorMatrix in="SourceAlpha" type="matrix" values="0 0 0 0 0 0 0 0 0 0 0 0 0 0 0 0 0 0 127 0" result="hardAlpha"/>
<feOffset dx="1.5" dy="1.5"/>
<feGaussianBlur stdDeviation="1.5"/>
<feColorMatrix type="matrix" values="0 0 0 0 0.682353 0 0 0 0 0.682353 0 0 0 0 0.752941 0 0 0 0.4 0"/>
<feBlend mode="normal" in2="BackgroundImageFix" result="effect1_dropShadow_150_809"/>
<feColorMatrix in="SourceAlpha" type="matrix" values="0 0 0 0 0 0 0 0 0 0 0 0 0 0 0 0 0 0 127 0" result="hardAlpha"/>
<feOffset dx="-1" dy="-1"/>
<feGaussianBlur stdDeviation="1.5"/>
<feColorMatrix type="matrix" values="0 0 0 0 1 0 0 0 0 1 0 0 0 0 1 0 0 0 1 0"/>
<feBlend mode="normal" in2="effect1_dropShadow_150_809" result="effect2_dropShadow_150_809"/>
<feBlend mode="normal" in="SourceGraphic" in2="effect2_dropShadow_150_809" result="shape"/>
</filter>
<filter id="filter1_dd_150_809" x="285" y="-17" width="37.5" height="37.5" filterUnits="userSpaceOnUse" color-interpolation-filters="sRGB">
<feFlood flood-opacity="0" result="BackgroundImageFix"/>
<feColorMatrix in="SourceAlpha" type="matrix" values="0 0 0 0 0 0 0 0 0 0 0 0 0 0 0 0 0 0 127 0" result="hardAlpha"/>
<feOffset dx="1.5" dy="1.5"/>
<feGaussianBlur stdDeviation="1.5"/>
<feColorMatrix type="matrix" values="0 0 0 0 0.682353 0 0 0 0 0.682353 0 0 0 0 0.752941 0 0 0 0.4 0"/>
<feBlend mode="normal" in2="BackgroundImageFix" result="effect1_dropShadow_150_809"/>
<feColorMatrix in="SourceAlpha" type="matrix" values="0 0 0 0 0 0 0 0 0 0 0 0 0 0 0 0 0 0 127 0" result="hardAlpha"/>
<feOffset dx="-1" dy="-1"/>
<feGaussianBlur stdDeviation="1.5"/>
<feColorMatrix type="matrix" values="0 0 0 0 1 0 0 0 0 1 0 0 0 0 1 0 0 0 1 0"/>
<feBlend mode="normal" in2="effect1_dropShadow_150_809" result="effect2_dropShadow_150_809"/>
<feBlend mode="normal" in="SourceGraphic" in2="effect2_dropShadow_150_809" result="shape"/>
</filter>
<filter id="filter2_ii_150_809" x="42.172" y="178.172" width="24.8105" height="24.8105" filterUnits="userSpaceOnUse" color-interpolation-filters="sRGB">
<feFlood flood-opacity="0" result="BackgroundImageFix"/>
<feBlend mode="normal" in="SourceGraphic" in2="BackgroundImageFix" result="shape"/>
<feColorMatrix in="SourceAlpha" type="matrix" values="0 0 0 0 0 0 0 0 0 0 0 0 0 0 0 0 0 0 127 0" result="hardAlpha"/>
<feOffset dx="1" dy="1"/>
<feGaussianBlur stdDeviation="0.5"/>
<feComposite in2="hardAlpha" operator="arithmetic" k2="-1" k3="1"/>
<feColorMatrix type="matrix" values="0 0 0 0 0.682353 0 0 0 0 0.682353 0 0 0 0 0.752941 0 0 0 0.15 0"/>
<feBlend mode="normal" in2="shape" result="effect1_innerShadow_150_809"/>
<feColorMatrix in="SourceAlpha" type="matrix" values="0 0 0 0 0 0 0 0 0 0 0 0 0 0 0 0 0 0 127 0" result="hardAlpha"/>
<feOffset dx="-1" dy="-1"/>
<feGaussianBlur stdDeviation="0.5"/>
<feComposite in2="hardAlpha" operator="arithmetic" k2="-1" k3="1"/>
<feColorMatrix type="matrix" values="0 0 0 0 1 0 0 0 0 1 0 0 0 0 1 0 0 0 0.7 0"/>
<feBlend mode="normal" in2="effect1_innerShadow_150_809" result="effect2_innerShadow_150_809"/>
</filter>
<filter id="filter3_ii_150_809" x="78.8537" y="-14.1953" width="37.9734" height="37.9734" filterUnits="userSpaceOnUse" color-interpolation-filters="sRGB">
<feFlood flood-opacity="0" result="BackgroundImageFix"/>
<feBlend mode="normal" in="SourceGraphic" in2="BackgroundImageFix" result="shape"/>
<feColorMatrix in="SourceAlpha" type="matrix" values="0 0 0 0 0 0 0 0 0 0 0 0 0 0 0 0 0 0 127 0" result="hardAlpha"/>
<feOffset dx="1" dy="1"/>
<feGaussianBlur stdDeviation="0.5"/>
<feComposite in2="hardAlpha" operator="arithmetic" k2="-1" k3="1"/>
<feColorMatrix type="matrix" values="0 0 0 0 0.682353 0 0 0 0 0.682353 0 0 0 0 0.752941 0 0 0 0.15 0"/>
<feBlend mode="normal" in2="shape" result="effect1_innerShadow_150_809"/>
<feColorMatrix in="SourceAlpha" type="matrix" values="0 0 0 0 0 0 0 0 0 0 0 0 0 0 0 0 0 0 127 0" result="hardAlpha"/>
<feOffset dx="-1" dy="-1"/>
<feGaussianBlur stdDeviation="0.5"/>
<feComposite in2="hardAlpha" operator="arithmetic" k2="-1" k3="1"/>
<feColorMatrix type="matrix" values="0 0 0 0 1 0 0 0 0 1 0 0 0 0 1 0 0 0 0.7 0"/>
<feBlend mode="normal" in2="effect1_innerShadow_150_809" result="effect2_innerShadow_150_809"/>
</filter>
<filter id="filter4_dd_150_809" x="288" y="108" width="32.5" height="32.5" filterUnits="userSpaceOnUse" color-interpolation-filters="sRGB">
<feFlood flood-opacity="0" result="BackgroundImageFix"/>
<feColorMatrix in="SourceAlpha" type="matrix" values="0 0 0 0 0 0 0 0 0 0 0 0 0 0 0 0 0 0 127 0" result="hardAlpha"/>
<feOffset dx="1.5" dy="1.5"/>
<feGaussianBlur stdDeviation="1.5"/>
<feColorMatrix type="matrix" values="0 0 0 0 0.682353 0 0 0 0 0.682353 0 0 0 0 0.752941 0 0 0 0.4 0"/>
<feBlend mode="normal" in2="BackgroundImageFix" result="effect1_dropShadow_150_809"/>
<feColorMatrix in="SourceAlpha" type="matrix" values="0 0 0 0 0 0 0 0 0 0 0 0 0 0 0 0 0 0 127 0" result="hardAlpha"/>
<feOffset dx="-1" dy="-1"/>
<feGaussianBlur stdDeviation="1.5"/>
<feColorMatrix type="matrix" values="0 0 0 0 1 0 0 0 0 1 0 0 0 0 1 0 0 0 1 0"/>
<feBlend mode="normal" in2="effect1_dropShadow_150_809" result="effect2_dropShadow_150_809"/>
<feBlend mode="normal" in="SourceGraphic" in2="effect2_dropShadow_150_809" result="shape"/>
</filter>
<filter id="filter5_ii_150_809" x="292" y="112" width="24" height="24" filterUnits="userSpaceOnUse" color-interpolation-filters="sRGB">
<feFlood flood-opacity="0" result="BackgroundImageFix"/>
<feBlend mode="normal" in="SourceGraphic" in2="BackgroundImageFix" result="shape"/>
<feColorMatrix in="SourceAlpha" type="matrix" values="0 0 0 0 0 0 0 0 0 0 0 0 0 0 0 0 0 0 127 0" result="hardAlpha"/>
<feOffset dx="1" dy="1"/>
<feGaussianBlur stdDeviation="0.5"/>
<feComposite in2="hardAlpha" operator="arithmetic" k2="-1" k3="1"/>
<feColorMatrix type="matrix" values="0 0 0 0 0.682353 0 0 0 0 0.682353 0 0 0 0 0.752941 0 0 0 0.15 0"/>
<feBlend mode="normal" in2="shape" result="effect1_innerShadow_150_809"/>
<feColorMatrix in="SourceAlpha" type="matrix" values="0 0 0 0 0 0 0 0 0 0 0 0 0 0 0 0 0 0 127 0" result="hardAlpha"/>
<feOffset dx="-1" dy="-1"/>
<feGaussianBlur stdDeviation="0.5"/>
<feComposite in2="hardAlpha" operator="arithmetic" k2="-1" k3="1"/>
<feColorMatrix type="matrix" values="0 0 0 0 1 0 0 0 0 1 0 0 0 0 1 0 0 0 0.7 0"/>
<feBlend mode="normal" in2="effect1_innerShadow_150_809" result="effect2_innerShadow_150_809"/>
</filter>
<filter id="filter6_dd_150_809" x="95" y="40" width="56.5" height="32.5" filterUnits="userSpaceOnUse" color-interpolation-filters="sRGB">
<feFlood flood-opacity="0" result="BackgroundImageFix"/>
<feColorMatrix in="SourceAlpha" type="matrix" values="0 0 0 0 0 0 0 0 0 0 0 0 0 0 0 0 0 0 127 0" result="hardAlpha"/>
<feOffset dx="1.5" dy="1.5"/>
<feGaussianBlur stdDeviation="1.5"/>
<feColorMatrix type="matrix" values="0 0 0 0 0.682353 0 0 0 0 0.682353 0 0 0 0 0.752941 0 0 0 0.4 0"/>
<feBlend mode="normal" in2="BackgroundImageFix" result="effect1_dropShadow_150_809"/>
<feColorMatrix in="SourceAlpha" type="matrix" values="0 0 0 0 0 0 0 0 0 0 0 0 0 0 0 0 0 0 127 0" result="hardAlpha"/>
<feOffset dx="-1" dy="-1"/>
<feGaussianBlur stdDeviation="1.5"/>
<feColorMatrix type="matrix" values="0 0 0 0 1 0 0 0 0 1 0 0 0 0 1 0 0 0 1 0"/>
<feBlend mode="normal" in2="effect1_dropShadow_150_809" result="effect2_dropShadow_150_809"/>
<feBlend mode="normal" in="SourceGraphic" in2="effect2_dropShadow_150_809" result="shape"/>
</filter>
<filter id="filter7_ii_150_809" x="99" y="44" width="48" height="24" filterUnits="userSpaceOnUse" color-interpolation-filters="sRGB">
<feFlood flood-opacity="0" result="BackgroundImageFix"/>
<feBlend mode="normal" in="SourceGraphic" in2="BackgroundImageFix" result="shape"/>
<feColorMatrix in="SourceAlpha" type="matrix" values="0 0 0 0 0 0 0 0 0 0 0 0 0 0 0 0 0 0 127 0" result="hardAlpha"/>
<feOffset dx="1" dy="1"/>
<feGaussianBlur stdDeviation="1"/>
<feComposite in2="hardAlpha" operator="arithmetic" k2="-1" k3="1"/>
<feColorMatrix type="matrix" values="0 0 0 0 0.682353 0 0 0 0 0.682353 0 0 0 0 0.752941 0 0 0 0.2 0"/>
<feBlend mode="normal" in2="shape" result="effect1_innerShadow_150_809"/>
<feColorMatrix in="SourceAlpha" type="matrix" values="0 0 0 0 0 0 0 0 0 0 0 0 0 0 0 0 0 0 127 0" result="hardAlpha"/>
<feOffset dx="-1" dy="-1"/>
<feGaussianBlur stdDeviation="0.5"/>
<feComposite in2="hardAlpha" operator="arithmetic" k2="-1" k3="1"/>
<feColorMatrix type="matrix" values="0 0 0 0 1 0 0 0 0 1 0 0 0 0 1 0 0 0 0.7 0"/>
<feBlend mode="normal" in2="effect1_innerShadow_150_809" result="effect2_innerShadow_150_809"/>
</filter>
<filter id="filter8_dd_150_809" x="101" y="47" width="21" height="20" filterUnits="userSpaceOnUse" color-interpolation-filters="sRGB">
<feFlood flood-opacity="0" result="BackgroundImageFix"/>
<feColorMatrix in="SourceAlpha" type="matrix" values="0 0 0 0 0 0 0 0 0 0 0 0 0 0 0 0 0 0 127 0" result="hardAlpha"/>
<feOffset dx="2" dy="2"/>
<feGaussianBlur stdDeviation="1.5"/>
<feColorMatrix type="matrix" values="0 0 0 0 0.682353 0 0 0 0 0.682353 0 0 0 0 0.752941 0 0 0 0.25 0"/>
<feBlend mode="normal" in2="BackgroundImageFix" result="effect1_dropShadow_150_809"/>
<feColorMatrix in="SourceAlpha" type="matrix" values="0 0 0 0 0 0 0 0 0 0 0 0 0 0 0 0 0 0 127 0" result="hardAlpha"/>
<feOffset dy="1"/>
<feGaussianBlur stdDeviation="2"/>
<feColorMatrix type="matrix" values="0 0 0 0 0.682353 0 0 0 0 0.682353 0 0 0 0 0.752941 0 0 0 0.25 0"/>
<feBlend mode="normal" in2="effect1_dropShadow_150_809" result="effect2_dropShadow_150_809"/>
<feBlend mode="normal" in="SourceGraphic" in2="effect2_dropShadow_150_809" result="shape"/>
</filter>
<filter id="filter9_dd_150_809" x="46" y="101" width="32.5" height="32.5" filterUnits="userSpaceOnUse" color-interpolation-filters="sRGB">
<feFlood flood-opacity="0" result="BackgroundImageFix"/>
<feColorMatrix in="SourceAlpha" type="matrix" values="0 0 0 0 0 0 0 0 0 0 0 0 0 0 0 0 0 0 127 0" result="hardAlpha"/>
<feOffset dx="1.5" dy="1.5"/>
<feGaussianBlur stdDeviation="1.5"/>
<feColorMatrix type="matrix" values="0 0 0 0 0.682353 0 0 0 0 0.682353 0 0 0 0 0.752941 0 0 0 0.4 0"/>
<feBlend mode="normal" in2="BackgroundImageFix" result="effect1_dropShadow_150_809"/>
<feColorMatrix in="SourceAlpha" type="matrix" values="0 0 0 0 0 0 0 0 0 0 0 0 0 0 0 0 0 0 127 0" result="hardAlpha"/>
<feOffset dx="-1" dy="-1"/>
<feGaussianBlur stdDeviation="1.5"/>
<feColorMatrix type="matrix" values="0 0 0 0 1 0 0 0 0 1 0 0 0 0 1 0 0 0 1 0"/>
<feBlend mode="normal" in2="effect1_dropShadow_150_809" result="effect2_dropShadow_150_809"/>
<feBlend mode="normal" in="SourceGraphic" in2="effect2_dropShadow_150_809" result="shape"/>
</filter>
<filter id="filter10_dd_150_809" x="99" y="112" width="128.5" height="16.5" filterUnits="userSpaceOnUse" color-interpolation-filters="sRGB">
<feFlood flood-opacity="0" result="BackgroundImageFix"/>
<feColorMatrix in="SourceAlpha" type="matrix" values="0 0 0 0 0 0 0 0 0 0 0 0 0 0 0 0 0 0 127 0" result="hardAlpha"/>
<feOffset dx="1.5" dy="1.5"/>
<feGaussianBlur stdDeviation="1.5"/>
<feColorMatrix type="matrix" values="0 0 0 0 0.682353 0 0 0 0 0.682353 0 0 0 0 0.752941 0 0 0 0.4 0"/>
<feBlend mode="normal" in2="BackgroundImageFix" result="effect1_dropShadow_150_809"/>
<feColorMatrix in="SourceAlpha" type="matrix" values="0 0 0 0 0 0 0 0 0 0 0 0 0 0 0 0 0 0 127 0" result="hardAlpha"/>
<feOffset dx="-1" dy="-1"/>
<feGaussianBlur stdDeviation="1.5"/>
<feColorMatrix type="matrix" values="0 0 0 0 1 0 0 0 0 1 0 0 0 0 1 0 0 0 1 0"/>
<feBlend mode="normal" in2="effect1_dropShadow_150_809" result="effect2_dropShadow_150_809"/>
<feBlend mode="normal" in="SourceGraphic" in2="effect2_dropShadow_150_809" result="shape"/>
</filter>
<filter id="filter11_ii_150_809" x="103" y="116" width="120" height="8" filterUnits="userSpaceOnUse" color-interpolation-filters="sRGB">
<feFlood flood-opacity="0" result="BackgroundImageFix"/>
<feBlend mode="normal" in="SourceGraphic" in2="BackgroundImageFix" result="shape"/>
<feColorMatrix in="SourceAlpha" type="matrix" values="0 0 0 0 0 0 0 0 0 0 0 0 0 0 0 0 0 0 127 0" result="hardAlpha"/>
<feOffset dx="1" dy="1"/>
<feGaussianBlur stdDeviation="1"/>
<feComposite in2="hardAlpha" operator="arithmetic" k2="-1" k3="1"/>
<feColorMatrix type="matrix" values="0 0 0 0 0.682353 0 0 0 0 0.682353 0 0 0 0 0.752941 0 0 0 0.2 0"/>
<feBlend mode="normal" in2="shape" result="effect1_innerShadow_150_809"/>
<feColorMatrix in="SourceAlpha" type="matrix" values="0 0 0 0 0 0 0 0 0 0 0 0 0 0 0 0 0 0 127 0" result="hardAlpha"/>
<feOffset dx="-1" dy="-1"/>
<feGaussianBlur stdDeviation="0.5"/>
<feComposite in2="hardAlpha" operator="arithmetic" k2="-1" k3="1"/>
<feColorMatrix type="matrix" values="0 0 0 0 1 0 0 0 0 1 0 0 0 0 1 0 0 0 0.7 0"/>
<feBlend mode="normal" in2="effect1_innerShadow_150_809" result="effect2_innerShadow_150_809"/>
</filter>
<filter id="filter12_dd_150_809" x="11" y="12" width="57.5" height="32.5" filterUnits="userSpaceOnUse" color-interpolation-filters="sRGB">
<feFlood flood-opacity="0" result="BackgroundImageFix"/>
<feColorMatrix in="SourceAlpha" type="matrix" values="0 0 0 0 0 0 0 0 0 0 0 0 0 0 0 0 0 0 127 0" result="hardAlpha"/>
<feOffset dx="1.5" dy="1.5"/>
<feGaussianBlur stdDeviation="1.5"/>
<feColorMatrix type="matrix" values="0 0 0 0 0.682353 0 0 0 0 0.682353 0 0 0 0 0.752941 0 0 0 0.4 0"/>
<feBlend mode="normal" in2="BackgroundImageFix" result="effect1_dropShadow_150_809"/>
<feColorMatrix in="SourceAlpha" type="matrix" values="0 0 0 0 0 0 0 0 0 0 0 0 0 0 0 0 0 0 127 0" result="hardAlpha"/>
<feOffset dx="-1" dy="-1"/>
<feGaussianBlur stdDeviation="1.5"/>
<feColorMatrix type="matrix" values="0 0 0 0 1 0 0 0 0 1 0 0 0 0 1 0 0 0 1 0"/>
<feBlend mode="normal" in2="effect1_dropShadow_150_809" result="effect2_dropShadow_150_809"/>
<feBlend mode="normal" in="SourceGraphic" in2="effect2_dropShadow_150_809" result="shape"/>
</filter>
<filter id="filter13_dd_150_809" x="36.8" y="17.5" width="3.7" height="19.25" filterUnits="userSpaceOnUse" color-interpolation-filters="sRGB">
<feFlood flood-opacity="0" result="BackgroundImageFix"/>
<feColorMatrix in="SourceAlpha" type="matrix" values="0 0 0 0 0 0 0 0 0 0 0 0 0 0 0 0 0 0 127 0" result="hardAlpha"/>
<feOffset dx="0.5" dy="0.75"/>
<feGaussianBlur stdDeviation="0.5"/>
<feColorMatrix type="matrix" values="0 0 0 0 0.682353 0 0 0 0 0.682353 0 0 0 0 0.752941 0 0 0 0.6 0"/>
<feBlend mode="normal" in2="BackgroundImageFix" result="effect1_dropShadow_150_809"/>
<feColorMatrix in="SourceAlpha" type="matrix" values="0 0 0 0 0 0 0 0 0 0 0 0 0 0 0 0 0 0 127 0" result="hardAlpha"/>
<feOffset dx="-0.2" dy="-0.5"/>
<feGaussianBlur stdDeviation="0.5"/>
<feColorMatrix type="matrix" values="0 0 0 0 1 0 0 0 0 1 0 0 0 0 1 0 0 0 1 0"/>
<feBlend mode="normal" in2="effect1_dropShadow_150_809" result="effect2_dropShadow_150_809"/>
<feBlend mode="normal" in="SourceGraphic" in2="effect2_dropShadow_150_809" result="shape"/>
</filter>
<filter id="filter14_dd_150_809" x="38.8" y="17.5" width="3.7" height="19.25" filterUnits="userSpaceOnUse" color-interpolation-filters="sRGB">
<feFlood flood-opacity="0" result="BackgroundImageFix"/>
<feColorMatrix in="SourceAlpha" type="matrix" values="0 0 0 0 0 0 0 0 0 0 0 0 0 0 0 0 0 0 127 0" result="hardAlpha"/>
<feOffset dx="0.5" dy="0.75"/>
<feGaussianBlur stdDeviation="0.5"/>
<feColorMatrix type="matrix" values="0 0 0 0 0.682353 0 0 0 0 0.682353 0 0 0 0 0.752941 0 0 0 0.6 0"/>
<feBlend mode="normal" in2="BackgroundImageFix" result="effect1_dropShadow_150_809"/>
<feColorMatrix in="SourceAlpha" type="matrix" values="0 0 0 0 0 0 0 0 0 0 0 0 0 0 0 0 0 0 127 0" result="hardAlpha"/>
<feOffset dx="-0.2" dy="-0.5"/>
<feGaussianBlur stdDeviation="0.5"/>
<feColorMatrix type="matrix" values="0 0 0 0 1 0 0 0 0 1 0 0 0 0 1 0 0 0 1 0"/>
<feBlend mode="normal" in2="effect1_dropShadow_150_809" result="effect2_dropShadow_150_809"/>
<feBlend mode="normal" in="SourceGraphic" in2="effect2_dropShadow_150_809" result="shape"/>
</filter>
<filter id="filter15_dd_150_809" x="167" y="150" width="104.5" height="32.5" filterUnits="userSpaceOnUse" color-interpolation-filters="sRGB">
<feFlood flood-opacity="0" result="BackgroundImageFix"/>
<feColorMatrix in="SourceAlpha" type="matrix" values="0 0 0 0 0 0 0 0 0 0 0 0 0 0 0 0 0 0 127 0" result="hardAlpha"/>
<feOffset dx="1.5" dy="1.5"/>
<feGaussianBlur stdDeviation="1.5"/>
<feColorMatrix type="matrix" values="0 0 0 0 0.682353 0 0 0 0 0.682353 0 0 0 0 0.752941 0 0 0 0.4 0"/>
<feBlend mode="normal" in2="BackgroundImageFix" result="effect1_dropShadow_150_809"/>
<feColorMatrix in="SourceAlpha" type="matrix" values="0 0 0 0 0 0 0 0 0 0 0 0 0 0 0 0 0 0 127 0" result="hardAlpha"/>
<feOffset dx="-1" dy="-1"/>
<feGaussianBlur stdDeviation="1.5"/>
<feColorMatrix type="matrix" values="0 0 0 0 1 0 0 0 0 1 0 0 0 0 1 0 0 0 1 0"/>
<feBlend mode="normal" in2="effect1_dropShadow_150_809" result="effect2_dropShadow_150_809"/>
<feBlend mode="normal" in="SourceGraphic" in2="effect2_dropShadow_150_809" result="shape"/>
</filter>
<filter id="filter16_dd_150_809" x="177.856" y="158.5" width="9.64366" height="15.25" filterUnits="userSpaceOnUse" color-interpolation-filters="sRGB">
<feFlood flood-opacity="0" result="BackgroundImageFix"/>
<feColorMatrix in="SourceAlpha" type="matrix" values="0 0 0 0 0 0 0 0 0 0 0 0 0 0 0 0 0 0 127 0" result="hardAlpha"/>
<feOffset dx="0.5" dy="0.75"/>
<feGaussianBlur stdDeviation="0.5"/>
<feColorMatrix type="matrix" values="0 0 0 0 0.682353 0 0 0 0 0.682353 0 0 0 0 0.752941 0 0 0 0.6 0"/>
<feBlend mode="normal" in2="BackgroundImageFix" result="effect1_dropShadow_150_809"/>
<feColorMatrix in="SourceAlpha" type="matrix" values="0 0 0 0 0 0 0 0 0 0 0 0 0 0 0 0 0 0 127 0" result="hardAlpha"/>
<feOffset dx="-0.2" dy="-0.5"/>
<feGaussianBlur stdDeviation="0.5"/>
<feColorMatrix type="matrix" values="0 0 0 0 1 0 0 0 0 1 0 0 0 0 1 0 0 0 1 0"/>
<feBlend mode="normal" in2="effect1_dropShadow_150_809" result="effect2_dropShadow_150_809"/>
<feBlend mode="normal" in="SourceGraphic" in2="effect2_dropShadow_150_809" result="shape"/>
</filter>
<filter id="filter17_ii_150_809" x="252" y="160" width="8.94366" height="14" filterUnits="userSpaceOnUse" color-interpolation-filters="sRGB">
<feFlood flood-opacity="0" result="BackgroundImageFix"/>
<feBlend mode="normal" in="SourceGraphic" in2="BackgroundImageFix" result="shape"/>
<feColorMatrix in="SourceAlpha" type="matrix" values="0 0 0 0 0 0 0 0 0 0 0 0 0 0 0 0 0 0 127 0" result="hardAlpha"/>
<feOffset dx="1" dy="1"/>
<feGaussianBlur stdDeviation="1"/>
<feComposite in2="hardAlpha" operator="arithmetic" k2="-1" k3="1"/>
<feColorMatrix type="matrix" values="0 0 0 0 0.682353 0 0 0 0 0.682353 0 0 0 0 0.752941 0 0 0 0.2 0"/>
<feBlend mode="normal" in2="shape" result="effect1_innerShadow_150_809"/>
<feColorMatrix in="SourceAlpha" type="matrix" values="0 0 0 0 0 0 0 0 0 0 0 0 0 0 0 0 0 0 127 0" result="hardAlpha"/>
<feOffset dx="-1" dy="-1"/>
<feGaussianBlur stdDeviation="0.5"/>
<feComposite in2="hardAlpha" operator="arithmetic" k2="-1" k3="1"/>
<feColorMatrix type="matrix" values="0 0 0 0 1 0 0 0 0 1 0 0 0 0 1 0 0 0 0.7 0"/>
<feBlend mode="normal" in2="effect1_innerShadow_150_809" result="effect2_innerShadow_150_809"/>
</filter>
<filter id="filter18_dd_150_809" x="207" y="27" width="104.5" height="32.5" filterUnits="userSpaceOnUse" color-interpolation-filters="sRGB">
<feFlood flood-opacity="0" result="BackgroundImageFix"/>
<feColorMatrix in="SourceAlpha" type="matrix" values="0 0 0 0 0 0 0 0 0 0 0 0 0 0 0 0 0 0 127 0" result="hardAlpha"/>
<feOffset dx="1.5" dy="1.5"/>
<feGaussianBlur stdDeviation="1.5"/>
<feColorMatrix type="matrix" values="0 0 0 0 0.682353 0 0 0 0 0.682353 0 0 0 0 0.752941 0 0 0 0.4 0"/>
<feBlend mode="normal" in2="BackgroundImageFix" result="effect1_dropShadow_150_809"/>
<feColorMatrix in="SourceAlpha" type="matrix" values="0 0 0 0 0 0 0 0 0 0 0 0 0 0 0 0 0 0 127 0" result="hardAlpha"/>
<feOffset dx="-1" dy="-1"/>
<feGaussianBlur stdDeviation="1.5"/>
<feColorMatrix type="matrix" values="0 0 0 0 1 0 0 0 0 1 0 0 0 0 1 0 0 0 1 0"/>
<feBlend mode="normal" in2="effect1_dropShadow_150_809" result="effect2_dropShadow_150_809"/>
<feBlend mode="normal" in="SourceGraphic" in2="effect2_dropShadow_150_809" result="shape"/>
</filter>
<filter id="filter19_dd_150_809" x="285.8" y="38.5" width="14.7" height="10.1937" filterUnits="userSpaceOnUse" color-interpolation-filters="sRGB">
<feFlood flood-opacity="0" result="BackgroundImageFix"/>
<feColorMatrix in="SourceAlpha" type="matrix" values="0 0 0 0 0 0 0 0 0 0 0 0 0 0 0 0 0 0 127 0" result="hardAlpha"/>
<feOffset dx="0.5" dy="0.75"/>
<feGaussianBlur stdDeviation="0.5"/>
<feColorMatrix type="matrix" values="0 0 0 0 0.682353 0 0 0 0 0.682353 0 0 0 0 0.752941 0 0 0 0.6 0"/>
<feBlend mode="normal" in2="BackgroundImageFix" result="effect1_dropShadow_150_809"/>
<feColorMatrix in="SourceAlpha" type="matrix" values="0 0 0 0 0 0 0 0 0 0 0 0 0 0 0 0 0 0 127 0" result="hardAlpha"/>
<feOffset dx="-0.2" dy="-0.5"/>
<feGaussianBlur stdDeviation="0.5"/>
<feColorMatrix type="matrix" values="0 0 0 0 1 0 0 0 0 1 0 0 0 0 1 0 0 0 1 0"/>
<feBlend mode="normal" in2="effect1_dropShadow_150_809" result="effect2_dropShadow_150_809"/>
<feBlend mode="normal" in="SourceGraphic" in2="effect2_dropShadow_150_809" result="shape"/>
</filter>
<clipPath id="clip0_150_809">
<rect width="325" height="188" fill="white"/>
</clipPath>
</defs>
</svg>
