<svg id="visual" viewBox="0 0 960 300" width="960" height="300" xmlns="http://www.w3.org/2000/svg" xmlns:xlink="http://www.w3.org/1999/xlink" version="1.1"><rect x="0" y="0" width="960" height="300" fill="#202731"></rect><defs><linearGradient id="grad1_0" x1="68.8%" y1="0%" x2="100%" y2="100%"><stop offset="-14.000000000000007%" stop-color="#fbae3c" stop-opacity="1"></stop><stop offset="114.00000000000001%" stop-color="#fbae3c" stop-opacity="1"></stop></linearGradient></defs><defs><linearGradient id="grad1_1" x1="68.8%" y1="0%" x2="100%" y2="100%"><stop offset="-14.000000000000007%" stop-color="#fbae3c" stop-opacity="1"></stop><stop offset="114.00000000000001%" stop-color="#f78853" stop-opacity="1"></stop></linearGradient></defs><defs><linearGradient id="grad1_2" x1="68.8%" y1="0%" x2="100%" y2="100%"><stop offset="-14.000000000000007%" stop-color="#e06a68" stop-opacity="1"></stop><stop offset="114.00000000000001%" stop-color="#f78853" stop-opacity="1"></stop></linearGradient></defs><defs><linearGradient id="grad1_3" x1="68.8%" y1="0%" x2="100%" y2="100%"><stop offset="-14.000000000000007%" stop-color="#e06a68" stop-opacity="1"></stop><stop offset="114.00000000000001%" stop-color="#ba5875" stop-opacity="1"></stop></linearGradient></defs><defs><linearGradient id="grad1_4" x1="68.8%" y1="0%" x2="100%" y2="100%"><stop offset="-14.000000000000007%" stop-color="#8c4e76" stop-opacity="1"></stop><stop offset="114.00000000000001%" stop-color="#ba5875" stop-opacity="1"></stop></linearGradient></defs><defs><linearGradient id="grad1_5" x1="68.8%" y1="0%" x2="100%" y2="100%"><stop offset="-14.000000000000007%" stop-color="#8c4e76" stop-opacity="1"></stop><stop offset="114.00000000000001%" stop-color="#5d4469" stop-opacity="1"></stop></linearGradient></defs><defs><linearGradient id="grad1_6" x1="68.8%" y1="0%" x2="100%" y2="100%"><stop offset="-14.000000000000007%" stop-color="#373750" stop-opacity="1"></stop><stop offset="114.00000000000001%" stop-color="#5d4469" stop-opacity="1"></stop></linearGradient></defs><defs><linearGradient id="grad1_7" x1="68.8%" y1="0%" x2="100%" y2="100%"><stop offset="-14.000000000000007%" stop-color="#373750" stop-opacity="1"></stop><stop offset="114.00000000000001%" stop-color="#202731" stop-opacity="1"></stop></linearGradient></defs><defs><linearGradient id="grad2_0" x1="0%" y1="0%" x2="31.3%" y2="100%"><stop offset="-14.000000000000007%" stop-color="#fbae3c" stop-opacity="1"></stop><stop offset="114.00000000000001%" stop-color="#fbae3c" stop-opacity="1"></stop></linearGradient></defs><defs><linearGradient id="grad2_1" x1="0%" y1="0%" x2="31.3%" y2="100%"><stop offset="-14.000000000000007%" stop-color="#f78853" stop-opacity="1"></stop><stop offset="114.00000000000001%" stop-color="#fbae3c" stop-opacity="1"></stop></linearGradient></defs><defs><linearGradient id="grad2_2" x1="0%" y1="0%" x2="31.3%" y2="100%"><stop offset="-14.000000000000007%" stop-color="#f78853" stop-opacity="1"></stop><stop offset="114.00000000000001%" stop-color="#e06a68" stop-opacity="1"></stop></linearGradient></defs><defs><linearGradient id="grad2_3" x1="0%" y1="0%" x2="31.3%" y2="100%"><stop offset="-14.000000000000007%" stop-color="#ba5875" stop-opacity="1"></stop><stop offset="114.00000000000001%" stop-color="#e06a68" stop-opacity="1"></stop></linearGradient></defs><defs><linearGradient id="grad2_4" x1="0%" y1="0%" x2="31.3%" y2="100%"><stop offset="-14.000000000000007%" stop-color="#ba5875" stop-opacity="1"></stop><stop offset="114.00000000000001%" stop-color="#8c4e76" stop-opacity="1"></stop></linearGradient></defs><defs><linearGradient id="grad2_5" x1="0%" y1="0%" x2="31.3%" y2="100%"><stop offset="-14.000000000000007%" stop-color="#5d4469" stop-opacity="1"></stop><stop offset="114.00000000000001%" stop-color="#8c4e76" stop-opacity="1"></stop></linearGradient></defs><defs><linearGradient id="grad2_6" x1="0%" y1="0%" x2="31.3%" y2="100%"><stop offset="-14.000000000000007%" stop-color="#5d4469" stop-opacity="1"></stop><stop offset="114.00000000000001%" stop-color="#373750" stop-opacity="1"></stop></linearGradient></defs><defs><linearGradient id="grad2_7" x1="0%" y1="0%" x2="31.3%" y2="100%"><stop offset="-14.000000000000007%" stop-color="#202731" stop-opacity="1"></stop><stop offset="114.00000000000001%" stop-color="#373750" stop-opacity="1"></stop></linearGradient></defs><g transform="translate(960, 0)"><path d="M0 260C-32.8 254.2 -65.6 248.5 -98.7 238.4C-131.8 228.2 -165.2 213.7 -190.2 190.2C-215.3 166.7 -232 134.2 -243.9 101C-255.8 67.8 -262.9 33.9 -270 0L0 0Z" fill="#293041"></path><path d="M0 227.5C-28.7 222.5 -57.4 217.4 -86.4 208.6C-115.3 199.7 -144.5 187 -166.4 166.4C-188.3 145.9 -203 117.4 -213.4 88.4C-223.8 59.4 -230 29.7 -236.2 0L0 0Z" fill="#483e5e"></path><path d="M0 195C-24.6 190.7 -49.2 186.4 -74 178.8C-98.9 171.2 -123.9 160.3 -142.7 142.7C-161.4 125 -174 100.7 -182.9 75.8C-191.9 50.9 -197.2 25.4 -202.5 0L0 0Z" fill="#744971"></path><path d="M0 162.5C-20.5 158.9 -41 155.3 -61.7 149C-82.4 142.6 -103.2 133.6 -118.9 118.9C-134.5 104.2 -145 83.9 -152.4 63.1C-159.9 42.4 -164.3 21.2 -168.7 0L0 0Z" fill="#a35378"></path><path d="M0 130C-16.4 127.1 -32.8 124.2 -49.4 119.2C-65.9 114.1 -82.6 106.9 -95.1 95.1C-107.6 83.4 -116 67.1 -122 50.5C-127.9 33.9 -131.5 17 -135 0L0 0Z" fill="#cf6070"></path><path d="M0 97.5C-12.3 95.3 -24.6 93.2 -37 89.4C-49.4 85.6 -61.9 80.1 -71.3 71.3C-80.7 62.5 -87 50.3 -91.5 37.9C-95.9 25.4 -98.6 12.7 -101.2 0L0 0Z" fill="#ee785e"></path><path d="M0 65C-8.2 63.6 -16.4 62.1 -24.7 59.6C-33 57.1 -41.3 53.4 -47.6 47.6C-53.8 41.7 -58 33.6 -61 25.3C-64 17 -65.7 8.5 -67.5 0L0 0Z" fill="#fc9a47"></path><path d="M0 32.5C-4.1 31.8 -8.2 31.1 -12.3 29.8C-16.5 28.5 -20.6 26.7 -23.8 23.8C-26.9 20.8 -29 16.8 -30.5 12.6C-32 8.5 -32.9 4.2 -33.7 0L0 0Z" fill="#fbae3c"></path></g><g transform="translate(0, 300)"><path d="M0 -259C35.6 -259.9 71.1 -260.9 103.3 -249.4C135.5 -238 164.4 -214.3 187.4 -187.4C210.4 -160.5 227.4 -130.5 238.4 -98.7C249.3 -67 254.2 -33.5 259 0L0 0Z" fill="#293041"></path><path d="M0 -226.6C31.1 -227.4 62.2 -228.3 90.4 -218.3C118.6 -208.3 143.9 -187.5 164 -164C184.1 -140.4 199 -114.2 208.6 -86.4C218.1 -58.6 222.4 -29.3 226.6 0L0 0Z" fill="#483e5e"></path><path d="M0 -194.2C26.7 -194.9 53.3 -195.6 77.5 -187.1C101.7 -178.5 123.3 -160.7 140.5 -140.5C157.8 -120.4 170.6 -97.9 178.8 -74C187 -50.2 190.6 -25.1 194.3 0L0 0Z" fill="#744971"></path><path d="M0 -161.9C22.2 -162.5 44.4 -163 64.6 -155.9C84.7 -148.8 102.8 -133.9 117.1 -117.1C131.5 -100.3 142.1 -81.6 149 -61.7C155.8 -41.9 158.8 -20.9 161.9 0L0 0Z" fill="#a35378"></path><path d="M0 -129.5C17.8 -130 35.6 -130.4 51.7 -124.7C67.8 -119 82.2 -107.1 93.7 -93.7C105.2 -80.2 113.7 -65.2 119.2 -49.4C124.7 -33.5 127.1 -16.7 129.5 0L0 0Z" fill="#cf6070"></path><path d="M0 -97.1C13.3 -97.5 26.7 -97.8 38.7 -93.5C50.8 -89.3 61.7 -80.4 70.3 -70.3C78.9 -60.2 85.3 -48.9 89.4 -37C93.5 -25.1 95.3 -12.6 97.1 0L0 0Z" fill="#ee785e"></path><path d="M0 -64.7C8.9 -65 17.8 -65.2 25.8 -62.4C33.9 -59.5 41.1 -53.6 46.8 -46.8C52.6 -40.1 56.9 -32.6 59.6 -24.7C62.3 -16.7 63.5 -8.4 64.8 0L0 0Z" fill="#fc9a47"></path><path d="M0 -32.4C4.4 -32.5 8.9 -32.6 12.9 -31.2C16.9 -29.8 20.6 -26.8 23.4 -23.4C26.3 -20.1 28.4 -16.3 29.8 -12.3C31.2 -8.4 31.8 -4.2 32.4 0L0 0Z" fill="#fbae3c"></path></g></svg>