<svg id="visual" viewBox="0 0 960 300" width="960" height="300" xmlns="http://www.w3.org/2000/svg" xmlns:xlink="http://www.w3.org/1999/xlink" version="1.1"><rect x="0" y="0" width="960" height="300" fill="#202731"></rect><defs><linearGradient id="grad1_0" x1="68.8%" y1="100%" x2="100%" y2="0%"><stop offset="-14.000000000000007%" stop-color="#fbae3c" stop-opacity="1"></stop><stop offset="114.00000000000001%" stop-color="#fbae3c" stop-opacity="1"></stop></linearGradient></defs><defs><linearGradient id="grad1_1" x1="68.8%" y1="100%" x2="100%" y2="0%"><stop offset="-14.000000000000007%" stop-color="#fbae3c" stop-opacity="1"></stop><stop offset="114.00000000000001%" stop-color="#f78853" stop-opacity="1"></stop></linearGradient></defs><defs><linearGradient id="grad1_2" x1="68.8%" y1="100%" x2="100%" y2="0%"><stop offset="-14.000000000000007%" stop-color="#e06a68" stop-opacity="1"></stop><stop offset="114.00000000000001%" stop-color="#f78853" stop-opacity="1"></stop></linearGradient></defs><defs><linearGradient id="grad1_3" x1="68.8%" y1="100%" x2="100%" y2="0%"><stop offset="-14.000000000000007%" stop-color="#e06a68" stop-opacity="1"></stop><stop offset="114.00000000000001%" stop-color="#ba5875" stop-opacity="1"></stop></linearGradient></defs><defs><linearGradient id="grad1_4" x1="68.8%" y1="100%" x2="100%" y2="0%"><stop offset="-14.000000000000007%" stop-color="#8c4e76" stop-opacity="1"></stop><stop offset="114.00000000000001%" stop-color="#ba5875" stop-opacity="1"></stop></linearGradient></defs><defs><linearGradient id="grad1_5" x1="68.8%" y1="100%" x2="100%" y2="0%"><stop offset="-14.000000000000007%" stop-color="#8c4e76" stop-opacity="1"></stop><stop offset="114.00000000000001%" stop-color="#5d4469" stop-opacity="1"></stop></linearGradient></defs><defs><linearGradient id="grad1_6" x1="68.8%" y1="100%" x2="100%" y2="0%"><stop offset="-14.000000000000007%" stop-color="#373750" stop-opacity="1"></stop><stop offset="114.00000000000001%" stop-color="#5d4469" stop-opacity="1"></stop></linearGradient></defs><defs><linearGradient id="grad1_7" x1="68.8%" y1="100%" x2="100%" y2="0%"><stop offset="-14.000000000000007%" stop-color="#373750" stop-opacity="1"></stop><stop offset="114.00000000000001%" stop-color="#202731" stop-opacity="1"></stop></linearGradient></defs><defs><linearGradient id="grad2_0" x1="0%" y1="100%" x2="31.3%" y2="0%"><stop offset="-14.000000000000007%" stop-color="#fbae3c" stop-opacity="1"></stop><stop offset="114.00000000000001%" stop-color="#fbae3c" stop-opacity="1"></stop></linearGradient></defs><defs><linearGradient id="grad2_1" x1="0%" y1="100%" x2="31.3%" y2="0%"><stop offset="-14.000000000000007%" stop-color="#f78853" stop-opacity="1"></stop><stop offset="114.00000000000001%" stop-color="#fbae3c" stop-opacity="1"></stop></linearGradient></defs><defs><linearGradient id="grad2_2" x1="0%" y1="100%" x2="31.3%" y2="0%"><stop offset="-14.000000000000007%" stop-color="#f78853" stop-opacity="1"></stop><stop offset="114.00000000000001%" stop-color="#e06a68" stop-opacity="1"></stop></linearGradient></defs><defs><linearGradient id="grad2_3" x1="0%" y1="100%" x2="31.3%" y2="0%"><stop offset="-14.000000000000007%" stop-color="#ba5875" stop-opacity="1"></stop><stop offset="114.00000000000001%" stop-color="#e06a68" stop-opacity="1"></stop></linearGradient></defs><defs><linearGradient id="grad2_4" x1="0%" y1="100%" x2="31.3%" y2="0%"><stop offset="-14.000000000000007%" stop-color="#ba5875" stop-opacity="1"></stop><stop offset="114.00000000000001%" stop-color="#8c4e76" stop-opacity="1"></stop></linearGradient></defs><defs><linearGradient id="grad2_5" x1="0%" y1="100%" x2="31.3%" y2="0%"><stop offset="-14.000000000000007%" stop-color="#5d4469" stop-opacity="1"></stop><stop offset="114.00000000000001%" stop-color="#8c4e76" stop-opacity="1"></stop></linearGradient></defs><defs><linearGradient id="grad2_6" x1="0%" y1="100%" x2="31.3%" y2="0%"><stop offset="-14.000000000000007%" stop-color="#5d4469" stop-opacity="1"></stop><stop offset="114.00000000000001%" stop-color="#373750" stop-opacity="1"></stop></linearGradient></defs><defs><linearGradient id="grad2_7" x1="0%" y1="100%" x2="31.3%" y2="0%"><stop offset="-14.000000000000007%" stop-color="#202731" stop-opacity="1"></stop><stop offset="114.00000000000001%" stop-color="#373750" stop-opacity="1"></stop></linearGradient></defs><g transform="translate(960, 300)"><path d="M-252 0C-260.9 -25.3 -269.8 -50.5 -260.8 -69.9C-251.8 -89.2 -224.7 -102.7 -210.4 -121.5C-196.1 -140.3 -194.6 -164.5 -183.8 -183.8C-173.1 -203.2 -153.3 -217.6 -132.5 -229.5C-111.7 -241.4 -90 -250.7 -67.8 -253.1C-45.6 -255.4 -22.8 -250.7 0 -246L0 0Z" fill="#293041"></path><path d="M-220.5 0C-228.3 -22.1 -236.1 -44.2 -228.2 -61.1C-220.3 -78.1 -196.6 -89.8 -184.1 -106.3C-171.6 -122.8 -170.2 -144 -160.9 -160.9C-151.5 -177.8 -134.1 -190.4 -115.9 -200.8C-97.8 -211.2 -78.8 -219.4 -59.3 -221.4C-39.9 -223.5 -19.9 -219.4 0 -215.2L0 0Z" fill="#483e5e"></path><path d="M-189 0C-195.7 -18.9 -202.4 -37.9 -195.6 -52.4C-188.8 -66.9 -168.6 -77 -157.8 -91.1C-147.1 -105.2 -145.9 -123.4 -137.9 -137.9C-129.8 -152.4 -115 -163.2 -99.4 -172.1C-83.8 -181 -67.5 -188.1 -50.9 -189.8C-34.2 -191.5 -17.1 -188 0 -184.5L0 0Z" fill="#744971"></path><path d="M-157.5 0C-163.1 -15.8 -168.7 -31.6 -163 -43.7C-157.3 -55.8 -140.5 -64.2 -131.5 -75.9C-122.6 -87.7 -121.6 -102.8 -114.9 -114.9C-108.2 -127 -95.8 -136 -82.8 -143.4C-69.8 -150.9 -56.3 -156.7 -42.4 -158.2C-28.5 -159.6 -14.2 -156.7 0 -153.7L0 0Z" fill="#a35378"></path><path d="M-126 0C-130.5 -12.6 -134.9 -25.3 -130.4 -34.9C-125.9 -44.6 -112.4 -51.3 -105.2 -60.8C-98.1 -70.2 -97.3 -82.3 -91.9 -91.9C-86.6 -101.6 -76.6 -108.8 -66.3 -114.7C-55.9 -120.7 -45 -125.4 -33.9 -126.5C-22.8 -127.7 -11.4 -125.3 0 -123L0 0Z" fill="#cf6070"></path><path d="M-94.5 0C-97.8 -9.5 -101.2 -18.9 -97.8 -26.2C-94.4 -33.5 -84.3 -38.5 -78.9 -45.6C-73.6 -52.6 -73 -61.7 -68.9 -68.9C-64.9 -76.2 -57.5 -81.6 -49.7 -86.1C-41.9 -90.5 -33.8 -94 -25.4 -94.9C-17.1 -95.8 -8.5 -94 0 -92.2L0 0Z" fill="#ee785e"></path><path d="M-63 0C-65.2 -6.3 -67.5 -12.6 -65.2 -17.5C-62.9 -22.3 -56.2 -25.7 -52.6 -30.4C-49 -35.1 -48.6 -41.1 -46 -46C-43.3 -50.8 -38.3 -54.4 -33.1 -57.4C-27.9 -60.3 -22.5 -62.7 -17 -63.3C-11.4 -63.8 -5.7 -62.7 0 -61.5L0 0Z" fill="#fc9a47"></path><path d="M-31.5 0C-32.6 -3.2 -33.7 -6.3 -32.6 -8.7C-31.5 -11.2 -28.1 -12.8 -26.3 -15.2C-24.5 -17.5 -24.3 -20.6 -23 -23C-21.6 -25.4 -19.2 -27.2 -16.6 -28.7C-14 -30.2 -11.3 -31.3 -8.5 -31.6C-5.7 -31.9 -2.8 -31.3 0 -30.7L0 0Z" fill="#fbae3c"></path></g><g transform="translate(0, 0)"><path d="M270 0C264.7 23 259.5 45.9 252.1 67.6C244.7 89.2 235.2 109.5 224.3 129.5C213.4 149.5 201 169.1 184.6 184.6C168.1 200 147.7 211.2 127.5 220.8C107.3 230.5 87.2 238.7 66 246.3C44.8 253.9 22.4 261 0 268L0 0Z" fill="#293041"></path><path d="M236.3 0C231.6 20.1 227 40.2 220.6 59.1C214.1 78 205.8 95.8 196.3 113.3C186.7 130.8 175.8 148 161.5 161.5C147.1 175 129.3 184.8 111.6 193.2C93.9 201.7 76.3 208.9 57.7 215.5C39.2 222.2 19.6 228.3 0 234.5L0 0Z" fill="#483e5e"></path><path d="M202.5 0C198.6 17.2 194.6 34.4 189.1 50.7C183.5 66.9 176.4 82.1 168.2 97.1C160 112.1 150.7 126.9 138.4 138.4C126.1 150 110.8 158.4 95.6 165.6C80.5 172.9 65.4 179 49.5 184.7C33.6 190.4 16.8 195.7 0 201L0 0Z" fill="#744971"></path><path d="M168.8 0C165.5 14.3 162.2 28.7 157.6 42.2C153 55.7 147 68.4 140.2 80.9C133.3 93.4 125.6 105.7 115.3 115.3C105.1 125 92.3 132 79.7 138C67 144.1 54.5 149.2 41.2 153.9C28 158.7 14 163.1 0 167.5L0 0Z" fill="#a35378"></path><path d="M135 0C132.4 11.5 129.7 23 126.1 33.8C122.4 44.6 117.6 54.8 112.2 64.7C106.7 74.7 100.5 84.6 92.3 92.3C84.1 100 73.9 105.6 63.8 110.4C53.6 115.3 43.6 119.4 33 123.2C22.4 127 11.2 130.5 0 134L0 0Z" fill="#cf6070"></path><path d="M101.3 0C99.3 8.6 97.3 17.2 94.5 25.3C91.8 33.4 88.2 41.1 84.1 48.6C80 56.1 75.4 63.4 69.2 69.2C63.1 75 55.4 79.2 47.8 82.8C40.2 86.4 32.7 89.5 24.7 92.4C16.8 95.2 8.4 97.9 0 100.5L0 0Z" fill="#ee785e"></path><path d="M67.5 0C66.2 5.7 64.9 11.5 63 16.9C61.2 22.3 58.8 27.4 56.1 32.4C53.3 37.4 50.2 42.3 46.1 46.1C42 50 36.9 52.8 31.9 55.2C26.8 57.6 21.8 59.7 16.5 61.6C11.2 63.5 5.6 65.2 0 67L0 0Z" fill="#fc9a47"></path><path d="M33.8 0C33.1 2.9 32.4 5.7 31.5 8.4C30.6 11.1 29.4 13.7 28 16.2C26.7 18.7 25.1 21.1 23.1 23.1C21 25 18.5 26.4 15.9 27.6C13.4 28.8 10.9 29.8 8.2 30.8C5.6 31.7 2.8 32.6 0 33.5L0 0Z" fill="#fbae3c"></path></g></svg>