<svg id="visual" viewBox="0 0 960 300" width="960" height="300" xmlns="http://www.w3.org/2000/svg" xmlns:xlink="http://www.w3.org/1999/xlink" version="1.1"><path d="M0 49L22.8 56.5C45.7 64 91.3 79 137 81.5C182.7 84 228.3 74 274 59.5C319.7 45 365.3 26 411.2 26.5C457 27 503 47 548.8 62.5C594.7 78 640.3 89 686 93C731.7 97 777.3 94 823 78C868.7 62 914.3 33 937.2 18.5L960 4L960 0L937.2 0C914.3 0 868.7 0 823 0C777.3 0 731.7 0 686 0C640.3 0 594.7 0 548.8 0C503 0 457 0 411.2 0C365.3 0 319.7 0 274 0C228.3 0 182.7 0 137 0C91.3 0 45.7 0 22.8 0L0 0Z" fill="#0066ff"></path><path d="M0 85L22.8 87C45.7 89 91.3 93 137 92C182.7 91 228.3 85 274 72.5C319.7 60 365.3 41 411.2 42C457 43 503 64 548.8 80.5C594.7 97 640.3 109 686 116C731.7 123 777.3 125 823 109.5C868.7 94 914.3 61 937.2 44.5L960 28L960 2L937.2 16.5C914.3 31 868.7 60 823 76C777.3 92 731.7 95 686 91C640.3 87 594.7 76 548.8 60.5C503 45 457 25 411.2 24.5C365.3 24 319.7 43 274 57.5C228.3 72 182.7 82 137 79.5C91.3 77 45.7 62 22.8 54.5L0 47Z" fill="#0061e8"></path><path d="M0 91L22.8 95C45.7 99 91.3 107 137 105.5C182.7 104 228.3 93 274 78.5C319.7 64 365.3 46 411.2 48C457 50 503 72 548.8 88C594.7 104 640.3 114 686 122.5C731.7 131 777.3 138 823 125.5C868.7 113 914.3 81 937.2 65L960 49L960 26L937.2 42.5C914.3 59 868.7 92 823 107.5C777.3 123 731.7 121 686 114C640.3 107 594.7 95 548.8 78.5C503 62 457 41 411.2 40C365.3 39 319.7 58 274 70.5C228.3 83 182.7 89 137 90C91.3 91 45.7 87 22.8 85L0 83Z" fill="#005bd0"></path><path d="M0 145L22.8 153C45.7 161 91.3 177 137 176.5C182.7 176 228.3 159 274 153.5C319.7 148 365.3 154 411.2 148C457 142 503 124 548.8 121.5C594.7 119 640.3 132 686 152.5C731.7 173 777.3 201 823 201C868.7 201 914.3 173 937.2 159L960 145L960 47L937.2 63C914.3 79 868.7 111 823 123.5C777.3 136 731.7 129 686 120.5C640.3 112 594.7 102 548.8 86C503 70 457 48 411.2 46C365.3 44 319.7 62 274 76.5C228.3 91 182.7 102 137 103.5C91.3 105 45.7 97 22.8 93L0 89Z" fill="#0055b9"></path><path d="M0 178L22.8 182C45.7 186 91.3 194 137 195C182.7 196 228.3 190 274 192C319.7 194 365.3 204 411.2 200.5C457 197 503 180 548.8 180.5C594.7 181 640.3 199 686 216C731.7 233 777.3 249 823 243.5C868.7 238 914.3 211 937.2 197.5L960 184L960 143L937.2 157C914.3 171 868.7 199 823 199C777.3 199 731.7 171 686 150.5C640.3 130 594.7 117 548.8 119.5C503 122 457 140 411.2 146C365.3 152 319.7 146 274 151.5C228.3 157 182.7 174 137 174.5C91.3 175 45.7 159 22.8 151L0 143Z" fill="#004ea2"></path><path d="M0 208L22.8 212C45.7 216 91.3 224 137 220C182.7 216 228.3 200 274 199C319.7 198 365.3 212 411.2 212C457 212 503 198 548.8 201C594.7 204 640.3 224 686 239.5C731.7 255 777.3 266 823 256.5C868.7 247 914.3 217 937.2 202L960 187L960 182L937.2 195.5C914.3 209 868.7 236 823 241.5C777.3 247 731.7 231 686 214C640.3 197 594.7 179 548.8 178.5C503 178 457 195 411.2 198.5C365.3 202 319.7 192 274 190C228.3 188 182.7 194 137 193C91.3 192 45.7 184 22.8 180L0 176Z" fill="#04478a"></path><path d="M0 235L22.8 239C45.7 243 91.3 251 137 245.5C182.7 240 228.3 221 274 218C319.7 215 365.3 228 411.2 229C457 230 503 219 548.8 224C594.7 229 640.3 250 686 261.5C731.7 273 777.3 275 823 265C868.7 255 914.3 233 937.2 222L960 211L960 185L937.2 200C914.3 215 868.7 245 823 254.5C777.3 264 731.7 253 686 237.5C640.3 222 594.7 202 548.8 199C503 196 457 210 411.2 210C365.3 210 319.7 196 274 197C228.3 198 182.7 214 137 218C91.3 222 45.7 214 22.8 210L0 206Z" fill="#104073"></path><path d="M0 271L22.8 271.5C45.7 272 91.3 273 137 266C182.7 259 228.3 244 274 245.5C319.7 247 365.3 265 411.2 266C457 267 503 251 548.8 249C594.7 247 640.3 259 686 266.5C731.7 274 777.3 277 823 273.5C868.7 270 914.3 260 937.2 255L960 250L960 209L937.2 220C914.3 231 868.7 253 823 263C777.3 273 731.7 271 686 259.5C640.3 248 594.7 227 548.8 222C503 217 457 228 411.2 227C365.3 226 319.7 213 274 216C228.3 219 182.7 238 137 243.5C91.3 249 45.7 241 22.8 237L0 233Z" fill="#19385c"></path><path d="M0 283L22.8 284C45.7 285 91.3 287 137 282.5C182.7 278 228.3 267 274 267.5C319.7 268 365.3 280 411.2 280.5C457 281 503 270 548.8 267.5C594.7 265 640.3 271 686 274.5C731.7 278 777.3 279 823 278C868.7 277 914.3 274 937.2 272.5L960 271L960 248L937.2 253C914.3 258 868.7 268 823 271.5C777.3 275 731.7 272 686 264.5C640.3 257 594.7 245 548.8 247C503 249 457 265 411.2 264C365.3 263 319.7 245 274 243.5C228.3 242 182.7 257 137 264C91.3 271 45.7 270 22.8 269.5L0 269Z" fill="#1e2f46"></path><path d="M0 301L22.8 301C45.7 301 91.3 301 137 301C182.7 301 228.3 301 274 301C319.7 301 365.3 301 411.2 301C457 301 503 301 548.8 301C594.7 301 640.3 301 686 301C731.7 301 777.3 301 823 301C868.7 301 914.3 301 937.2 301L960 301L960 269L937.2 270.5C914.3 272 868.7 275 823 276C777.3 277 731.7 276 686 272.5C640.3 269 594.7 263 548.8 265.5C503 268 457 279 411.2 278.5C365.3 278 319.7 266 274 265.5C228.3 265 182.7 276 137 280.5C91.3 285 45.7 283 22.8 282L0 281Z" fill="#202731"></path></svg>