<svg id="visual" viewBox="0 0 960 300" width="960" height="300" xmlns="http://www.w3.org/2000/svg" xmlns:xlink="http://www.w3.org/1999/xlink" version="1.1"><rect x="0" y="0" width="960" height="300" fill="#202731"></rect><path d="M0 176L22.8 184.8C45.7 193.7 91.3 211.3 137 213C182.7 214.7 228.3 200.3 274 191.3C319.7 182.3 365.3 178.7 411.2 184.8C457 191 503 207 548.8 205C594.7 203 640.3 183 686 185.3C731.7 187.7 777.3 212.3 823 214C868.7 215.7 914.3 194.3 937.2 183.7L960 173L960 0L937.2 0C914.3 0 868.7 0 823 0C777.3 0 731.7 0 686 0C640.3 0 594.7 0 548.8 0C503 0 457 0 411.2 0C365.3 0 319.7 0 274 0C228.3 0 182.7 0 137 0C91.3 0 45.7 0 22.8 0L0 0Z" fill="#f7770f"></path><path d="M0 176L22.8 171C45.7 166 91.3 156 137 156.5C182.7 157 228.3 168 274 169.5C319.7 171 365.3 163 411.2 155.2C457 147.3 503 139.7 548.8 141C594.7 142.3 640.3 152.7 686 156.3C731.7 160 777.3 157 823 150C868.7 143 914.3 132 937.2 126.5L960 121L960 0L937.2 0C914.3 0 868.7 0 823 0C777.3 0 731.7 0 686 0C640.3 0 594.7 0 548.8 0C503 0 457 0 411.2 0C365.3 0 319.7 0 274 0C228.3 0 182.7 0 137 0C91.3 0 45.7 0 22.8 0L0 0Z" fill="#f2691b"></path><path d="M0 109L22.8 108.5C45.7 108 91.3 107 137 107.3C182.7 107.7 228.3 109.3 274 118.5C319.7 127.7 365.3 144.3 411.2 150.3C457 156.3 503 151.7 548.8 142.8C594.7 134 640.3 121 686 122.7C731.7 124.3 777.3 140.7 823 144.7C868.7 148.7 914.3 140.3 937.2 136.2L960 132L960 0L937.2 0C914.3 0 868.7 0 823 0C777.3 0 731.7 0 686 0C640.3 0 594.7 0 548.8 0C503 0 457 0 411.2 0C365.3 0 319.7 0 274 0C228.3 0 182.7 0 137 0C91.3 0 45.7 0 22.8 0L0 0Z" fill="#ec5b24"></path><path d="M0 115L22.8 110.7C45.7 106.3 91.3 97.7 137 97.5C182.7 97.3 228.3 105.7 274 104.2C319.7 102.7 365.3 91.3 411.2 83.3C457 75.3 503 70.7 548.8 67C594.7 63.3 640.3 60.7 686 65.3C731.7 70 777.3 82 823 83.2C868.7 84.3 914.3 74.7 937.2 69.8L960 65L960 0L937.2 0C914.3 0 868.7 0 823 0C777.3 0 731.7 0 686 0C640.3 0 594.7 0 548.8 0C503 0 457 0 411.2 0C365.3 0 319.7 0 274 0C228.3 0 182.7 0 137 0C91.3 0 45.7 0 22.8 0L0 0Z" fill="#e54d2b"></path><path d="M0 71L22.8 64.3C45.7 57.7 91.3 44.3 137 44.8C182.7 45.3 228.3 59.7 274 65.7C319.7 71.7 365.3 69.3 411.2 66.8C457 64.3 503 61.7 548.8 59.5C594.7 57.3 640.3 55.7 686 57C731.7 58.3 777.3 62.7 823 61.5C868.7 60.3 914.3 53.7 937.2 50.3L960 47L960 0L937.2 0C914.3 0 868.7 0 823 0C777.3 0 731.7 0 686 0C640.3 0 594.7 0 548.8 0C503 0 457 0 411.2 0C365.3 0 319.7 0 274 0C228.3 0 182.7 0 137 0C91.3 0 45.7 0 22.8 0L0 0Z" fill="#dd3f31"></path></svg>