<svg id="visual" viewBox="0 0 960 300" width="960" height="300" xmlns="http://www.w3.org/2000/svg" xmlns:xlink="http://www.w3.org/1999/xlink" version="1.1"><rect x="0" y="0" width="960" height="300" fill="#f0f0f3"></rect><path d="M0 125L10.7 119C21.3 113 42.7 101 64 98C85.3 95 106.7 101 128 103.2C149.3 105.3 170.7 103.7 192 104.5C213.3 105.3 234.7 108.7 256 104C277.3 99.3 298.7 86.7 320 85.8C341.3 85 362.7 96 384 102.7C405.3 109.3 426.7 111.7 448 111C469.3 110.3 490.7 106.7 512 101C533.3 95.3 554.7 87.7 576 85.7C597.3 83.7 618.7 87.3 640 88.8C661.3 90.3 682.7 89.7 704 89C725.3 88.3 746.7 87.7 768 94.2C789.3 100.7 810.7 114.3 832 116C853.3 117.7 874.7 107.3 896 100.5C917.3 93.7 938.7 90.3 949.3 88.7L960 87L960 301L949.3 301C938.7 301 917.3 301 896 301C874.7 301 853.3 301 832 301C810.7 301 789.3 301 768 301C746.7 301 725.3 301 704 301C682.7 301 661.3 301 640 301C618.7 301 597.3 301 576 301C554.7 301 533.3 301 512 301C490.7 301 469.3 301 448 301C426.7 301 405.3 301 384 301C362.7 301 341.3 301 320 301C298.7 301 277.3 301 256 301C234.7 301 213.3 301 192 301C170.7 301 149.3 301 128 301C106.7 301 85.3 301 64 301C42.7 301 21.3 301 10.7 301L0 301Z" fill="#e9e9e9"></path><path d="M0 148L10.7 147C21.3 146 42.7 144 64 144.2C85.3 144.3 106.7 146.7 128 150.3C149.3 154 170.7 159 192 156.8C213.3 154.7 234.7 145.3 256 139.3C277.3 133.3 298.7 130.7 320 127.5C341.3 124.3 362.7 120.7 384 122C405.3 123.3 426.7 129.7 448 136.3C469.3 143 490.7 150 512 152.8C533.3 155.7 554.7 154.3 576 153.7C597.3 153 618.7 153 640 151.8C661.3 150.7 682.7 148.3 704 142.2C725.3 136 746.7 126 768 125.2C789.3 124.3 810.7 132.7 832 137.5C853.3 142.3 874.7 143.7 896 140C917.3 136.3 938.7 127.7 949.3 123.3L960 119L960 301L949.3 301C938.7 301 917.3 301 896 301C874.7 301 853.3 301 832 301C810.7 301 789.3 301 768 301C746.7 301 725.3 301 704 301C682.7 301 661.3 301 640 301C618.7 301 597.3 301 576 301C554.7 301 533.3 301 512 301C490.7 301 469.3 301 448 301C426.7 301 405.3 301 384 301C362.7 301 341.3 301 320 301C298.7 301 277.3 301 256 301C234.7 301 213.3 301 192 301C170.7 301 149.3 301 128 301C106.7 301 85.3 301 64 301C42.7 301 21.3 301 10.7 301L0 301Z" fill="#cbd0dd"></path><path d="M0 161L10.7 166.2C21.3 171.3 42.7 181.7 64 186.5C85.3 191.3 106.7 190.7 128 188.5C149.3 186.3 170.7 182.7 192 183.7C213.3 184.7 234.7 190.3 256 188.3C277.3 186.3 298.7 176.7 320 173.8C341.3 171 362.7 175 384 176.2C405.3 177.3 426.7 175.7 448 171.7C469.3 167.7 490.7 161.3 512 163.3C533.3 165.3 554.7 175.7 576 179.8C597.3 184 618.7 182 640 184.2C661.3 186.3 682.7 192.7 704 194.8C725.3 197 746.7 195 768 192C789.3 189 810.7 185 832 182C853.3 179 874.7 177 896 176.5C917.3 176 938.7 177 949.3 177.5L960 178L960 301L949.3 301C938.7 301 917.3 301 896 301C874.7 301 853.3 301 832 301C810.7 301 789.3 301 768 301C746.7 301 725.3 301 704 301C682.7 301 661.3 301 640 301C618.7 301 597.3 301 576 301C554.7 301 533.3 301 512 301C490.7 301 469.3 301 448 301C426.7 301 405.3 301 384 301C362.7 301 341.3 301 320 301C298.7 301 277.3 301 256 301C234.7 301 213.3 301 192 301C170.7 301 149.3 301 128 301C106.7 301 85.3 301 64 301C42.7 301 21.3 301 10.7 301L0 301Z" fill="#aeb8d0"></path><path d="M0 199L10.7 200.5C21.3 202 42.7 205 64 206.3C85.3 207.7 106.7 207.3 128 209.2C149.3 211 170.7 215 192 219.3C213.3 223.7 234.7 228.3 256 225.8C277.3 223.3 298.7 213.7 320 212.3C341.3 211 362.7 218 384 217C405.3 216 426.7 207 448 206.5C469.3 206 490.7 214 512 220.3C533.3 226.7 554.7 231.3 576 227.3C597.3 223.3 618.7 210.7 640 204.3C661.3 198 682.7 198 704 199.3C725.3 200.7 746.7 203.3 768 205.7C789.3 208 810.7 210 832 214.8C853.3 219.7 874.7 227.3 896 227C917.3 226.7 938.7 218.3 949.3 214.2L960 210L960 301L949.3 301C938.7 301 917.3 301 896 301C874.7 301 853.3 301 832 301C810.7 301 789.3 301 768 301C746.7 301 725.3 301 704 301C682.7 301 661.3 301 640 301C618.7 301 597.3 301 576 301C554.7 301 533.3 301 512 301C490.7 301 469.3 301 448 301C426.7 301 405.3 301 384 301C362.7 301 341.3 301 320 301C298.7 301 277.3 301 256 301C234.7 301 213.3 301 192 301C170.7 301 149.3 301 128 301C106.7 301 85.3 301 64 301C42.7 301 21.3 301 10.7 301L0 301Z" fill="#90a1c4"></path><path d="M0 271L10.7 270.5C21.3 270 42.7 269 64 265.7C85.3 262.3 106.7 256.7 128 254.3C149.3 252 170.7 253 192 252C213.3 251 234.7 248 256 246.8C277.3 245.7 298.7 246.3 320 245.8C341.3 245.3 362.7 243.7 384 245.3C405.3 247 426.7 252 448 255.3C469.3 258.7 490.7 260.3 512 260.3C533.3 260.3 554.7 258.7 576 254.8C597.3 251 618.7 245 640 241.7C661.3 238.3 682.7 237.7 704 239.2C725.3 240.7 746.7 244.3 768 245.7C789.3 247 810.7 246 832 247C853.3 248 874.7 251 896 253.3C917.3 255.7 938.7 257.3 949.3 258.2L960 259L960 301L949.3 301C938.7 301 917.3 301 896 301C874.7 301 853.3 301 832 301C810.7 301 789.3 301 768 301C746.7 301 725.3 301 704 301C682.7 301 661.3 301 640 301C618.7 301 597.3 301 576 301C554.7 301 533.3 301 512 301C490.7 301 469.3 301 448 301C426.7 301 405.3 301 384 301C362.7 301 341.3 301 320 301C298.7 301 277.3 301 256 301C234.7 301 213.3 301 192 301C170.7 301 149.3 301 128 301C106.7 301 85.3 301 64 301C42.7 301 21.3 301 10.7 301L0 301Z" fill="#728ab7"></path></svg>